<svg xmlns="http://www.w3.org/2000/svg" viewBox="0 0 140 220" id="sunflower-svg" aria-label="Sunflower character">
  <defs>
    <radialGradient id="centerGrad" cx="50%" cy="40%" r="55%">
      <stop offset="0%" stop-color="#022658"/>
      <stop offset="100%" stop-color="#011540"/>
    </radialGradient>
    <radialGradient id="petalGrad" cx="50%" cy="30%" r="60%">
      <stop offset="0%" stop-color="#FFEE44"/>
      <stop offset="100%" stop-color="#FFF778"/>
    </radialGradient>
    <radialGradient id="petalGrad2" cx="50%" cy="30%" r="60%">
      <stop offset="0%" stop-color="#FFE030"/>
      <stop offset="100%" stop-color="#FFD700"/>
    </radialGradient>
    <filter id="glow-sf">
      <feGaussianBlur stdDeviation="2" result="blur"/>
      <feMerge>
        <feMergeNode in="blur"/>
        <feMergeNode in="SourceGraphic"/>
      </feMerge>
    </filter>
    <filter id="soft-shadow">
      <feDropShadow dx="0" dy="3" stdDeviation="4" flood-color="rgba(90,50,10,0.25)"/>
    </filter>
  </defs>

  <!-- Stem -->
  <path d="M 70 140 Q 65 170 68 210" stroke="#3a8a3a" stroke-width="7" fill="none" stroke-linecap="round"/>

  <!-- Leaves -->
  <ellipse cx="52" cy="175" rx="20" ry="10" fill="#4a9e4a" transform="rotate(-30 52 175)"/>
  <ellipse cx="88" cy="163" rx="18" ry="9" fill="#3d8a3d" transform="rotate(30 88 163)"/>

  <!-- Flower head group — sways -->
  <g id="flower-head" filter="url(#soft-shadow)">
    <animateTransform attributeName="transform" type="rotate"
      values="0 70 140; 3 70 140; 0 70 140; -3 70 140; 0 70 140"
      dur="4s" repeatCount="indefinite"/>

    <!-- Outer petals (layer 1) -->
    <g id="petals-outer">
      <ellipse cx="70" cy="52" rx="11" ry="24" fill="url(#petalGrad2)" transform="rotate(0 70 95)"/>
      <ellipse cx="88" cy="57" rx="11" ry="24" fill="url(#petalGrad2)" transform="rotate(45 70 95)"/>
      <ellipse cx="97" cy="73" rx="11" ry="24" fill="url(#petalGrad)" transform="rotate(90 70 95)"/>
      <ellipse cx="88" cy="91" rx="11" ry="24" fill="url(#petalGrad2)" transform="rotate(135 70 95)"/>
      <ellipse cx="70" cy="96" rx="11" ry="24" fill="url(#petalGrad)" transform="rotate(180 70 95)"/>
      <ellipse cx="52" cy="91" rx="11" ry="24" fill="url(#petalGrad2)" transform="rotate(225 70 95)"/>
      <ellipse cx="43" cy="73" rx="11" ry="24" fill="url(#petalGrad)" transform="rotate(270 70 95)"/>
      <ellipse cx="52" cy="57" rx="11" ry="24" fill="url(#petalGrad2)" transform="rotate(315 70 95)"/>
    </g>

    <!-- Inner petals (layer 2, slightly smaller, offset) -->
    <g id="petals-inner" transform="rotate(22.5 70 95)">
      <ellipse cx="70" cy="56" rx="9" ry="20" fill="url(#petalGrad)" transform="rotate(0 70 95)"/>
      <ellipse cx="85" cy="60" rx="9" ry="20" fill="url(#petalGrad2)" transform="rotate(45 70 95)"/>
      <ellipse cx="92" cy="74" rx="9" ry="20" fill="url(#petalGrad)" transform="rotate(90 70 95)"/>
      <ellipse cx="86" cy="88" rx="9" ry="20" fill="url(#petalGrad2)" transform="rotate(135 70 95)"/>
      <ellipse cx="70" cy="93" rx="9" ry="20" fill="url(#petalGrad)" transform="rotate(180 70 95)"/>
      <ellipse cx="54" cy="89" rx="9" ry="20" fill="url(#petalGrad2)" transform="rotate(225 70 95)"/>
      <ellipse cx="47" cy="75" rx="9" ry="20" fill="url(#petalGrad)" transform="rotate(270 70 95)"/>
      <ellipse cx="54" cy="61" rx="9" ry="20" fill="url(#petalGrad2)" transform="rotate(315 70 95)"/>
    </g>

    <!-- Center disc -->
    <circle cx="70" cy="95" r="28" fill="url(#centerGrad)"/>
    <!-- Seed dots pattern -->
    <circle cx="70" cy="87" r="2.5" fill="rgba(255,200,100,0.4)"/>
    <circle cx="78" cy="90" r="2.5" fill="rgba(255,200,100,0.4)"/>
    <circle cx="62" cy="90" r="2.5" fill="rgba(255,200,100,0.4)"/>
    <circle cx="75" cy="97" r="2.5" fill="rgba(255,200,100,0.4)"/>
    <circle cx="65" cy="97" r="2.5" fill="rgba(255,200,100,0.4)"/>
    <circle cx="70" cy="103" r="2.5" fill="rgba(255,200,100,0.4)"/>
    <circle cx="80" cy="100" r="2.5" fill="rgba(255,200,100,0.4)"/>
    <circle cx="60" cy="100" r="2.5" fill="rgba(255,200,100,0.4)"/>

    <!-- Face on center -->
    <!-- Eyes -->
    <circle cx="61" cy="90" r="5.5" fill="white"/>
    <circle cx="79" cy="90" r="5.5" fill="white"/>
    <circle cx="62.5" cy="91" r="3.5" fill="#022658"/>
    <circle cx="80.5" cy="91" r="3.5" fill="#022658"/>
    <!-- Pupils shine -->
    <circle cx="63.5" cy="89.5" r="1.2" fill="white"/>
    <circle cx="81.5" cy="89.5" r="1.2" fill="white"/>

    <!-- Smile -->
    <path d="M 62 100 Q 70 108 78 100" stroke="#022658" stroke-width="2.5" fill="none" stroke-linecap="round"
      id="sf-smile"/>

    <!-- Blush cheeks -->
    <circle cx="53" cy="98" r="6" fill="#FF9999" opacity="0.45"/>
    <circle cx="87" cy="98" r="6" fill="#FF9999" opacity="0.45"/>

    <!-- Waving hand / leaf arm -->
    <g id="wave-arm">
      <path d="M 95 100 Q 112 88 118 76" stroke="#4a9e4a" stroke-width="5" fill="none" stroke-linecap="round"/>
      <ellipse cx="121" cy="72" rx="11" ry="7" fill="#4a9e4a" transform="rotate(-30 121 72)"/>
      <animateTransform attributeName="transform" type="rotate"
        values="0 95 100; 15 95 100; 0 95 100; -5 95 100; 0 95 100"
        dur="2s" repeatCount="indefinite" id="wave-anim"/>
    </g>

    <!-- Blush extra (hidden, for blushing state) -->
    <circle id="blush-extra-l" cx="53" cy="98" r="8" fill="#FF6B8A" opacity="0"/>
    <circle id="blush-extra-r" cx="87" cy="98" r="8" fill="#FF6B8A" opacity="0"/>
  </g>

  <!-- Bloom animation overlay (for bloom-in effect) -->
  <circle id="bloom-mask" cx="70" cy="95" r="0" fill="none">
    <animate id="bloom-anim" attributeName="r" from="0" to="80" dur="1.2s" fill="freeze" begin="indefinite"/>
  </circle>
</svg>
